<svg xmlns:xlink="http://www.w3.org/1999/xlink" xmlns="http://www.w3.org/2000/svg" width="196.0077" height="253.324" x="279.2296" y="280.4595" version="1.1" preserveAspectRatio="none" viewBox="41.849998474121094 24.949996948242188 116.10001373291016 150.0500030517578">
  <g transform="matrix(-1 0 0 1 199.80001068115234 0)"><g><path d="M142.2 100l15.3-15.4c.6-.6.6-1.4 0-2l-56.6-57.2c-.6-.6-1.4-.6-2 0L42.3 82.6c-.6.6-.6 1.4 0 2L57.6 100l-15.3 15.4c-.6.6-.6 1.4 0 2l56.6 57.2c.3.3.6.4 1 .4s.7-.1 1-.4l56.6-57.2c.6-.6.6-1.4 0-2L142.2 100zm-42.3 71.6l-54.6-55.2L59.6 102l39.8 40c.3.3.6.4 1 .4s.7-.1 1-.4l11.6-11.7h.1c.4-.4.6-1 .3-1.6 0 0 0-.1-.1-.1 0-.1-.1-.1-.1-.3L72 85.7c-.6-.6-1.4-.6-2 0s-.6 1.4 0 2l40.2 41.6-9.8 9.8-55.1-55.5 54.6-55.2 54.6 55.2L140.2 98l-39.3-39.8c-.6-.6-1.4-.6-2 0L86.5 70.4c-.6.6-.6 1.4 0 2l41.2 42.6c.6.6 1.4.6 2 0s.6-1.4 0-2L89.4 71.6l10.5-10.3 39.3 39.8 15.3 15.4-54.6 55.1z" data-color="1" class="aygLqS0v9Lcolors-0752325d1-ff7d-4bc0-b32d-618acd78a49d" fill="#FFFFFF"></path></g></g>
</svg>